<svg width="283" height="67" viewBox="0 0 283 67" fill="none" xmlns="http://www.w3.org/2000/svg">
<g clip-path="url(#clip0_49_17)">
<path d="M274.948 66.3325L7.99194 66.3325C5.87234 66.3325 3.83951 65.4904 2.34073 63.9917C0.841949 62.4929 -6.10352e-05 60.4601 -6.10352e-05 58.3405V7.99187C-6.10352e-05 5.8723 0.841919 3.83953 2.3407 2.34077C3.83948 0.842003 5.87222 7.62939e-06 7.99179 7.62939e-06L274.948 7.62939e-06C277.068 7.62939e-06 279.1 0.842003 280.599 2.34077C282.098 3.83953 282.94 5.8723 282.94 7.99187V58.3405C282.94 60.4601 282.098 62.4929 280.599 63.9917C279.1 65.4904 277.068 66.3325 274.948 66.3325Z" fill="#242424"/>
<g clip-path="url(#clip1_49_17)">
<path fill-rule="evenodd" clip-rule="evenodd" d="M29 51.1334C29.2095 50.3336 29.3872 49.6322 29.5759 48.9353C30.1873 46.7057 30.8141 44.4803 31.3937 42.2444C31.4793 41.8842 31.4407 41.5057 31.284 41.1703C29.2074 37.2965 28.5854 32.8075 29.5305 28.515C30.4756 24.2225 32.9254 20.4099 36.437 17.7665C39.9486 15.1231 44.2901 13.8234 48.6765 14.1024C53.063 14.3815 57.2048 16.2209 60.3531 19.288C63.5014 22.3551 65.4483 26.4475 65.8418 30.8251C66.2353 35.2028 65.0495 39.5768 62.4987 43.1562C59.9479 46.7356 56.2005 49.2842 51.9341 50.341C47.6678 51.3979 43.1641 50.8934 39.2373 48.9186C38.8822 48.7591 38.4851 48.7179 38.1048 48.8013C33.2289 50.0216 29.9838 50.9409 29 51.1334ZM33.2896 46.9045C35.1257 46.423 36.8143 46.0003 38.4888 45.5332C38.6992 45.4699 38.9208 45.4532 39.1383 45.4843C39.3558 45.5154 39.5639 45.5936 39.7481 45.7134C42.8115 47.5422 46.4242 48.2254 49.9439 47.6414C53.178 47.1357 56.1667 45.6121 58.476 43.292C60.7852 40.9719 62.2947 37.9761 62.7853 34.7396C63.2759 31.5031 62.722 28.1945 61.2041 25.2943C59.6862 22.394 57.2832 20.0532 54.3443 18.6117C51.4053 17.1701 48.0834 16.703 44.8608 17.2781C41.6383 17.8533 38.683 19.4407 36.4241 21.8098C34.1652 24.179 32.7204 27.2066 32.2994 30.4528C31.8784 33.6991 32.5033 36.995 34.0831 39.862C34.3696 40.2863 34.5503 40.773 34.61 41.2815C34.6698 41.7899 34.6069 42.3053 34.4266 42.7844C33.9699 44.0805 33.6875 45.4307 33.2896 46.9045Z" fill="white"/>
<path fill-rule="evenodd" clip-rule="evenodd" d="M52.3264 41.254C48.7297 41.1222 43.0027 38.2835 39.0805 31.4709C38.3646 30.3799 38.0573 29.0711 38.2128 27.7755C38.3684 26.4799 38.9768 25.281 39.9306 24.3906C40.2673 24.1454 40.6584 23.9857 41.0705 23.9251C41.4825 23.8646 41.9031 23.9051 42.296 24.0431C42.4942 24.0723 42.702 24.3781 42.8018 24.6042C43.3242 25.7889 43.839 26.9825 44.2932 28.199C44.5341 28.8434 44.0925 29.4445 43.1597 30.5163C43.0153 30.6458 42.923 30.8235 42.9 31.0162C42.8771 31.2088 42.9251 31.4032 43.0351 31.563C44.4683 34.0744 46.7256 36.013 49.4247 37.0503C49.5911 37.1312 49.7812 37.1493 49.9598 37.1012C50.1385 37.0531 50.2938 36.9421 50.3972 36.7886C51.8666 34.9965 52.0166 34.4732 52.79 34.8374C56.5113 36.6213 56.8 36.6943 56.817 37.1151C56.8321 37.6933 56.7234 38.268 56.4982 38.8007C56.273 39.3334 55.9365 39.8119 55.5112 40.2038C55.0859 40.5958 54.5817 40.8923 54.0324 41.0735C53.4831 41.2546 52.9014 41.3161 52.3264 41.254Z" fill="white"/>
</g>
<path d="M99.288 28.856L98.44 27.56C96.9787 28.36 95.8747 29.32 95.128 30.44C94.3813 31.56 94.008 32.8827 94.008 34.408C94.008 35.9333 94.3813 37.256 95.128 38.376C95.8747 39.496 96.9787 40.456 98.44 41.256L99.288 39.96C98.1467 39.2133 97.304 38.4027 96.76 37.528C96.216 36.6427 95.944 35.6027 95.944 34.408C95.944 33.8107 96.008 33.256 96.136 32.744C96.2747 32.232 96.4827 31.752 96.76 31.304C97.0373 30.856 97.384 30.4293 97.8 30.024C98.2267 29.6187 98.7227 29.2293 99.288 28.856ZM106.847 27.72L100.623 35.08L100.991 36.488H106.639V39H108.527V36.488H110.127V34.872H108.527V27.72H106.847ZM106.639 34.872H102.959L106.639 30.44V34.872ZM111.494 29.528H117.126L112.102 39H114.31L119.366 29.288V27.8H111.494V29.528ZM120.924 28.856C122.055 29.6133 122.892 30.4293 123.436 31.304C123.991 32.1787 124.268 33.2133 124.268 34.408C124.268 35.0053 124.199 35.56 124.06 36.072C123.932 36.584 123.73 37.064 123.452 37.512C123.175 37.96 122.823 38.3867 122.396 38.792C121.98 39.1973 121.49 39.5867 120.924 39.96L121.772 41.256C123.223 40.456 124.322 39.496 125.068 38.376C125.826 37.2453 126.204 35.9227 126.204 34.408C126.204 32.8933 125.826 31.576 125.068 30.456C124.322 29.3253 123.223 28.36 121.772 27.56L120.924 28.856ZM136.787 33.08C136.787 31.9707 136.664 31.0853 136.419 30.424C136.174 29.752 135.843 29.208 135.427 28.792C135.032 28.3973 134.59 28.104 134.099 27.912C133.619 27.7093 133.027 27.608 132.323 27.608C131.704 27.608 131.139 27.7093 130.627 27.912C130.115 28.104 129.672 28.376 129.299 28.728C128.936 29.0693 128.654 29.48 128.451 29.96C128.248 30.4293 128.147 30.9413 128.147 31.496C128.147 32.04 128.243 32.5307 128.435 32.968C128.627 33.4053 128.894 33.784 129.235 34.104C129.587 34.4133 130.003 34.6533 130.483 34.824C130.974 34.984 131.518 35.064 132.115 35.064C132.723 35.064 133.24 34.952 133.667 34.728C134.104 34.504 134.462 34.2213 134.739 33.88C134.718 34.392 134.643 34.8667 134.515 35.304C134.387 35.7307 134.206 36.104 133.971 36.424C133.747 36.7333 133.47 36.9733 133.139 37.144C132.819 37.3147 132.451 37.4 132.035 37.4C131.555 37.4 131.112 37.3147 130.707 37.144C130.312 36.9733 129.902 36.7067 129.475 36.344L128.403 37.848C128.883 38.2427 129.406 38.568 129.971 38.824C130.536 39.0693 131.208 39.192 131.987 39.192C132.734 39.192 133.406 39.0427 134.003 38.744C134.6 38.4453 135.102 38.0293 135.507 37.496C135.923 36.952 136.238 36.3067 136.451 35.56C136.675 34.8133 136.787 33.9867 136.787 33.08ZM134.675 31.384C134.675 31.6613 134.622 31.9227 134.515 32.168C134.419 32.4133 134.27 32.632 134.067 32.824C133.875 33.0053 133.635 33.1493 133.347 33.256C133.07 33.3627 132.755 33.416 132.403 33.416C131.699 33.416 131.139 33.2293 130.723 32.856C130.318 32.4827 130.115 31.9973 130.115 31.4C130.115 30.8133 130.307 30.3173 130.691 29.912C131.086 29.5067 131.635 29.304 132.339 29.304C132.691 29.304 133.011 29.3573 133.299 29.464C133.587 29.5707 133.832 29.72 134.035 29.912C134.238 30.0933 134.392 30.312 134.499 30.568C134.616 30.8133 134.675 31.0853 134.675 31.384ZM152.084 33.08C152.084 31.9707 151.961 31.0853 151.716 30.424C151.471 29.752 151.14 29.208 150.724 28.792C150.329 28.3973 149.887 28.104 149.396 27.912C148.916 27.7093 148.324 27.608 147.62 27.608C147.001 27.608 146.436 27.7093 145.924 27.912C145.412 28.104 144.969 28.376 144.596 28.728C144.233 29.0693 143.951 29.48 143.748 29.96C143.545 30.4293 143.444 30.9413 143.444 31.496C143.444 32.04 143.54 32.5307 143.732 32.968C143.924 33.4053 144.191 33.784 144.532 34.104C144.884 34.4133 145.3 34.6533 145.78 34.824C146.271 34.984 146.815 35.064 147.412 35.064C148.02 35.064 148.537 34.952 148.964 34.728C149.401 34.504 149.759 34.2213 150.036 33.88C150.015 34.392 149.94 34.8667 149.812 35.304C149.684 35.7307 149.503 36.104 149.268 36.424C149.044 36.7333 148.767 36.9733 148.436 37.144C148.116 37.3147 147.748 37.4 147.332 37.4C146.852 37.4 146.409 37.3147 146.004 37.144C145.609 36.9733 145.199 36.7067 144.772 36.344L143.7 37.848C144.18 38.2427 144.703 38.568 145.268 38.824C145.833 39.0693 146.505 39.192 147.284 39.192C148.031 39.192 148.703 39.0427 149.3 38.744C149.897 38.4453 150.399 38.0293 150.804 37.496C151.22 36.952 151.535 36.3067 151.748 35.56C151.972 34.8133 152.084 33.9867 152.084 33.08ZM149.972 31.384C149.972 31.6613 149.919 31.9227 149.812 32.168C149.716 32.4133 149.567 32.632 149.364 32.824C149.172 33.0053 148.932 33.1493 148.644 33.256C148.367 33.3627 148.052 33.416 147.7 33.416C146.996 33.416 146.436 33.2293 146.02 32.856C145.615 32.4827 145.412 31.9973 145.412 31.4C145.412 30.8133 145.604 30.3173 145.988 29.912C146.383 29.5067 146.932 29.304 147.636 29.304C147.988 29.304 148.308 29.3573 148.596 29.464C148.884 29.5707 149.129 29.72 149.332 29.912C149.535 30.0933 149.689 30.312 149.796 30.568C149.913 30.8133 149.972 31.0853 149.972 31.384ZM162.136 28.856C161.645 28.4613 161.133 28.1573 160.6 27.944C160.067 27.72 159.437 27.608 158.712 27.608C157.923 27.608 157.224 27.768 156.616 28.088C156.019 28.3973 155.517 28.8293 155.112 29.384C154.717 29.928 154.419 30.5733 154.216 31.32C154.013 32.056 153.912 32.856 153.912 33.72C153.912 34.2853 153.939 34.7867 153.992 35.224C154.056 35.6613 154.147 36.056 154.264 36.408C154.381 36.7493 154.525 37.0533 154.696 37.32C154.867 37.576 155.059 37.8107 155.272 38.024C155.645 38.3973 156.083 38.6853 156.584 38.888C157.096 39.0907 157.699 39.192 158.392 39.192C158.979 39.192 159.523 39.1013 160.024 38.92C160.536 38.728 160.979 38.4667 161.352 38.136C161.725 37.7947 162.019 37.3893 162.232 36.92C162.445 36.4507 162.552 35.9333 162.552 35.368C162.552 34.8027 162.451 34.3013 162.248 33.864C162.045 33.4267 161.763 33.0587 161.4 32.76C161.048 32.4507 160.632 32.2213 160.152 32.072C159.683 31.912 159.176 31.832 158.632 31.832C158.301 31.832 158.003 31.864 157.736 31.928C157.48 31.992 157.24 32.0773 157.016 32.184C156.803 32.28 156.611 32.3973 156.44 32.536C156.269 32.6747 156.109 32.8133 155.96 32.952C155.981 32.44 156.056 31.9707 156.184 31.544C156.312 31.1067 156.488 30.728 156.712 30.408C156.936 30.088 157.208 29.8427 157.528 29.672C157.859 29.4907 158.232 29.4 158.648 29.4C159.139 29.4 159.565 29.4853 159.928 29.656C160.301 29.8267 160.685 30.0667 161.08 30.376L162.136 28.856ZM160.584 35.448C160.584 36.0347 160.387 36.5253 159.992 36.92C159.597 37.304 159.048 37.496 158.344 37.496C157.64 37.496 157.075 37.304 156.648 36.92C156.232 36.536 156.024 36.0507 156.024 35.464C156.024 35.1973 156.077 34.9413 156.184 34.696C156.291 34.4507 156.44 34.2427 156.632 34.072C156.835 33.8907 157.075 33.7467 157.352 33.64C157.629 33.5333 157.944 33.48 158.296 33.48C159 33.48 159.555 33.6667 159.96 34.04C160.376 34.4027 160.584 34.872 160.584 35.448ZM168.428 29.4C168.94 29.4 169.367 29.5547 169.708 29.864C170.06 30.1627 170.236 30.5893 170.236 31.144C170.236 31.4 170.199 31.64 170.124 31.864C170.049 32.088 169.927 32.3173 169.756 32.552C169.596 32.7867 169.383 33.0373 169.116 33.304C168.849 33.56 168.524 33.848 168.14 34.168L164.284 37.448V39H172.38V37.272H167.052L169.356 35.352C169.847 34.9467 170.273 34.5733 170.636 34.232C171.009 33.8907 171.313 33.5547 171.548 33.224C171.793 32.8933 171.975 32.552 172.092 32.2C172.209 31.848 172.268 31.448 172.268 31C172.268 30.4987 172.177 30.0453 171.996 29.64C171.825 29.224 171.58 28.8667 171.26 28.568C170.94 28.2693 170.551 28.04 170.092 27.88C169.633 27.72 169.127 27.64 168.572 27.64C168.071 27.64 167.623 27.6933 167.228 27.8C166.844 27.9067 166.487 28.0613 166.156 28.264C165.836 28.456 165.537 28.7013 165.26 29C164.983 29.288 164.711 29.6187 164.444 29.992L165.836 31.08C166.273 30.5147 166.684 30.0933 167.068 29.816C167.463 29.5387 167.916 29.4 168.428 29.4ZM179.473 29.512L176.449 32.728L176.769 33.96H177.681C178.481 33.96 179.11 34.1093 179.569 34.408C180.027 34.7067 180.257 35.1387 180.257 35.704C180.257 36.2267 180.07 36.6427 179.697 36.952C179.334 37.2613 178.875 37.416 178.321 37.416C177.691 37.416 177.142 37.2933 176.673 37.048C176.214 36.792 175.782 36.424 175.377 35.944L174.001 37.224C174.481 37.8 175.067 38.2747 175.761 38.648C176.465 39.0107 177.307 39.192 178.289 39.192C178.865 39.192 179.393 39.1067 179.873 38.936C180.363 38.7547 180.779 38.5093 181.121 38.2C181.462 37.88 181.729 37.5067 181.921 37.08C182.113 36.6427 182.209 36.1627 182.209 35.64C182.209 35.1173 182.118 34.6693 181.937 34.296C181.755 33.9227 181.51 33.6133 181.201 33.368C180.902 33.112 180.55 32.9147 180.145 32.776C179.75 32.6267 179.339 32.5253 178.913 32.472L182.033 29.272V27.8H174.625V29.512H179.473ZM188.835 35.048V33.144H184.099V35.048H188.835ZM198.87 28.856C198.38 28.4613 197.868 28.1573 197.334 27.944C196.801 27.72 196.172 27.608 195.446 27.608C194.657 27.608 193.958 27.768 193.35 28.088C192.753 28.3973 192.252 28.8293 191.846 29.384C191.452 29.928 191.153 30.5733 190.95 31.32C190.748 32.056 190.646 32.856 190.646 33.72C190.646 34.2853 190.673 34.7867 190.726 35.224C190.79 35.6613 190.881 36.056 190.998 36.408C191.116 36.7493 191.26 37.0533 191.43 37.32C191.601 37.576 191.793 37.8107 192.006 38.024C192.38 38.3973 192.817 38.6853 193.318 38.888C193.83 39.0907 194.433 39.192 195.126 39.192C195.713 39.192 196.257 39.1013 196.758 38.92C197.27 38.728 197.713 38.4667 198.086 38.136C198.46 37.7947 198.753 37.3893 198.966 36.92C199.18 36.4507 199.286 35.9333 199.286 35.368C199.286 34.8027 199.185 34.3013 198.982 33.864C198.78 33.4267 198.497 33.0587 198.134 32.76C197.782 32.4507 197.366 32.2213 196.886 32.072C196.417 31.912 195.91 31.832 195.366 31.832C195.036 31.832 194.737 31.864 194.47 31.928C194.214 31.992 193.974 32.0773 193.75 32.184C193.537 32.28 193.345 32.3973 193.174 32.536C193.004 32.6747 192.844 32.8133 192.694 32.952C192.716 32.44 192.79 31.9707 192.918 31.544C193.046 31.1067 193.222 30.728 193.446 30.408C193.67 30.088 193.942 29.8427 194.262 29.672C194.593 29.4907 194.966 29.4 195.382 29.4C195.873 29.4 196.3 29.4853 196.662 29.656C197.036 29.8267 197.42 30.0667 197.814 30.376L198.87 28.856ZM197.318 35.448C197.318 36.0347 197.121 36.5253 196.726 36.92C196.332 37.304 195.782 37.496 195.078 37.496C194.374 37.496 193.809 37.304 193.382 36.92C192.966 36.536 192.758 36.0507 192.758 35.464C192.758 35.1973 192.812 34.9413 192.918 34.696C193.025 34.4507 193.174 34.2427 193.366 34.072C193.569 33.8907 193.809 33.7467 194.086 33.64C194.364 33.5333 194.678 33.48 195.03 33.48C195.734 33.48 196.289 33.6667 196.694 34.04C197.11 34.4027 197.318 34.872 197.318 35.448ZM207.034 27.72L200.81 35.08L201.178 36.488H206.826V39H208.714V36.488H210.314V34.872H208.714V27.72H207.034ZM206.826 34.872H203.146L206.826 30.44V34.872ZM211.682 29.528H217.314L212.29 39H214.498L219.554 29.288V27.8H211.682V29.528ZM229.5 35.896C229.5 35.224 229.313 34.6747 228.94 34.248C228.577 33.8213 228.092 33.4693 227.484 33.192C227.953 32.9467 228.342 32.6267 228.652 32.232C228.961 31.8267 229.116 31.3093 229.116 30.68C229.116 30.2533 229.014 29.8533 228.812 29.48C228.62 29.1067 228.353 28.7867 228.012 28.52C227.67 28.2427 227.26 28.0293 226.78 27.88C226.3 27.72 225.782 27.64 225.228 27.64C224.662 27.64 224.14 27.72 223.66 27.88C223.19 28.0293 222.785 28.2427 222.444 28.52C222.102 28.7867 221.83 29.1067 221.628 29.48C221.436 29.8533 221.34 30.2533 221.34 30.68C221.34 31.3093 221.494 31.8267 221.804 32.232C222.113 32.6267 222.502 32.9467 222.972 33.192C222.332 33.4587 221.836 33.8107 221.484 34.248C221.132 34.6853 220.956 35.2507 220.956 35.944C220.956 36.424 221.062 36.8667 221.276 37.272C221.489 37.6667 221.788 38.0027 222.172 38.28C222.556 38.5573 223.009 38.776 223.532 38.936C224.054 39.0853 224.62 39.16 225.228 39.16C225.836 39.16 226.401 39.0853 226.924 38.936C227.446 38.7867 227.9 38.5733 228.284 38.296C228.668 38.008 228.966 37.6613 229.18 37.256C229.393 36.8507 229.5 36.3973 229.5 35.896ZM227.228 30.872C227.228 31.3627 227.036 31.7627 226.652 32.072C226.278 32.3813 225.804 32.536 225.228 32.536C224.652 32.536 224.172 32.3813 223.788 32.072C223.414 31.7627 223.228 31.3573 223.228 30.856C223.228 30.4187 223.409 30.0507 223.772 29.752C224.134 29.4427 224.62 29.288 225.228 29.288C225.836 29.288 226.321 29.4427 226.684 29.752C227.046 30.0507 227.228 30.424 227.228 30.872ZM227.58 35.816C227.58 36.296 227.372 36.7013 226.956 37.032C226.54 37.352 225.964 37.512 225.228 37.512C224.492 37.512 223.916 37.352 223.5 37.032C223.084 36.7013 222.876 36.296 222.876 35.816C222.876 35.56 222.934 35.3253 223.052 35.112C223.18 34.8987 223.345 34.7173 223.548 34.568C223.761 34.4187 224.012 34.3067 224.299 34.232C224.588 34.1467 224.897 34.104 225.228 34.104C225.558 34.104 225.868 34.1467 226.156 34.232C226.444 34.3067 226.689 34.4187 226.892 34.568C227.105 34.7173 227.27 34.8987 227.388 35.112C227.516 35.3253 227.58 35.56 227.58 35.816Z" fill="white"/>
</g>
<defs>
<clipPath id="clip0_49_17">
<rect width="282.94" height="66.3325" fill="white"/>
</clipPath>
<clipPath id="clip1_49_17">
<rect width="36.9375" height="37.1334" fill="white" transform="translate(29 14)"/>
</clipPath>
</defs>
</svg>
